<svg width="55" height="53" viewBox="0 0 55 53" fill="none" xmlns="http://www.w3.org/2000/svg">
<path d="M27.0833 0C23.5267 0 20.0049 0.700531 16.719 2.0616C13.4331 3.42266 10.4474 5.4176 7.93253 7.93252C2.85341 13.0116 0 19.9004 0 27.0833C0 39.0542 7.77292 49.2104 18.525 52.8125C19.8792 53.0292 20.3125 52.1896 20.3125 51.4583V46.8812C12.8104 48.5062 11.2125 43.2521 11.2125 43.2521C9.96667 40.1104 8.20625 39.2708 8.20625 39.2708C5.74167 37.5917 8.39583 37.6458 8.39583 37.6458C11.1042 37.8354 12.5396 40.4354 12.5396 40.4354C14.8958 44.5521 18.8771 43.3333 20.4208 42.6833C20.6646 40.9229 21.3688 39.7313 22.1271 39.0542C16.1146 38.3771 9.80417 36.0479 9.80417 25.7292C9.80417 22.7229 10.8333 20.3125 12.5938 18.3896C12.3229 17.7125 11.375 14.8958 12.8646 11.2396C12.8646 11.2396 15.1396 10.5083 20.3125 14.0021C22.4521 13.4062 24.7813 13.1083 27.0833 13.1083C29.3854 13.1083 31.7146 13.4062 33.8542 14.0021C39.0271 10.5083 41.3021 11.2396 41.3021 11.2396C42.7917 14.8958 41.8438 17.7125 41.5729 18.3896C43.3333 20.3125 44.3625 22.7229 44.3625 25.7292C44.3625 36.075 38.025 38.35 31.9854 39.0271C32.9604 39.8667 33.8542 41.5187 33.8542 44.0375V51.4583C33.8542 52.1896 34.2875 53.0562 35.6688 52.8125C46.4208 49.1833 54.1667 39.0542 54.1667 27.0833C54.1667 23.5267 53.4661 20.0049 52.1051 16.719C50.744 13.4331 48.7491 10.4474 46.2341 7.93252C43.7192 5.4176 40.7336 3.42266 37.4477 2.0616C34.1618 0.700531 30.64 0 27.0833 0Z" fill="#004E96"/>
</svg>
